<svg width="27" height="27" viewBox="0 0 27 27" fill="none" xmlns="http://www.w3.org/2000/svg">
<path d="M3.01205 20.7446C3.53276 22.3501 5.1154 23.3747 6.8041 23.3747H6.8704C7.02532 24.1308 7.43654 24.8103 8.03456 25.2983C8.63258 25.7863 9.38073 26.0529 10.1526 26.053C10.7034 26.053 11.2181 25.9144 11.6737 25.6757C11.8641 25.5717 12.0224 25.4177 12.1318 25.2304C12.2412 25.0431 12.2974 24.8295 12.2945 24.6126V3.18375C12.2963 2.90777 12.2033 2.63955 12.0311 2.4239C11.8588 2.20824 11.6178 2.05821 11.3483 1.99888C10.7436 1.88106 10.1169 1.96623 9.56558 2.24116C8.66879 2.67027 8.14325 3.62853 8.14325 4.62536V4.69165C7.47213 4.55467 6.77513 4.62681 6.14628 4.89833C5.51743 5.16986 4.98698 5.6277 4.62647 6.21012C4.26596 6.79253 4.09273 7.4715 4.13015 8.15544C4.16758 8.83938 4.41385 9.4954 4.83575 10.035C3.89117 10.1837 3.03072 10.6648 2.40932 11.3916C1.78793 12.1184 1.44642 13.0432 1.44629 13.9994C1.44629 15.4193 2.18276 16.6645 3.2941 17.3889C2.7758 18.3182 2.60584 19.4934 3.01205 20.7446ZM22.164 10.035C22.5859 9.4954 22.8321 8.83938 22.8696 8.15544C22.907 7.4715 22.7338 6.79253 22.3733 6.21012C22.0127 5.6277 21.4823 5.16986 20.8534 4.89833C20.2246 4.62681 19.5276 4.55467 18.8565 4.69165V4.62536C18.8565 3.62973 18.3297 2.67027 17.4329 2.24116C16.882 1.9665 16.2557 1.88134 15.6514 1.99888C15.3819 2.05821 15.1409 2.20824 14.9687 2.4239C14.7965 2.63955 14.7035 2.90777 14.7052 3.18375V24.6114C14.7052 25.0513 14.9366 25.4696 15.3272 25.6745C15.7828 25.9144 16.2963 26.053 16.8471 26.053C17.6192 26.0528 18.3674 25.7861 18.9655 25.2978C19.5635 24.8096 19.9746 24.1299 20.1293 23.3735H20.1968C21.8843 23.3735 23.4682 22.3489 23.9889 20.7434C24.3951 19.4922 24.2251 18.317 23.7068 17.3877C24.273 17.0219 24.7385 16.5202 25.0611 15.9284C25.3836 15.3366 25.5529 14.6734 25.5534 13.9994C25.5533 13.0432 25.2118 12.1184 24.5904 11.3916C23.969 10.6648 23.1086 10.1837 22.164 10.035Z" fill="#3A3A3A"/>
</svg>
