<svg width="24" height="25" viewBox="0 0 24 25" fill="none" xmlns="http://www.w3.org/2000/svg">
<path opacity="0.4" d="M9.39083 4.40475C10.2636 1.95395 13.7364 1.95395 14.6092 4.40475C15.0645 5.68336 16.3826 6.44288 17.7198 6.19716C20.2828 5.72617 22.0191 8.72777 20.3289 10.7076C19.4471 11.7405 19.4471 13.2595 20.3289 14.2924C22.0191 16.2722 20.2828 19.2738 17.7198 18.8028C16.3826 18.5571 15.0645 19.3166 14.6092 20.5952C13.7364 23.046 10.2636 23.046 9.39083 20.5952C8.93547 19.3166 7.61739 18.5571 6.28024 18.8028C3.71725 19.2738 1.98089 16.2722 3.67108 14.2924C4.55287 13.2595 4.55287 11.7405 3.67108 10.7076C1.98089 8.72777 3.71725 5.72617 6.28024 6.19716C7.61739 6.44288 8.93547 5.68336 9.39083 4.40475Z" fill="#646464"/>
<circle cx="11.9998" cy="12.5" r="3.33333" fill="#646464"/>
</svg>
