<svg width="27" height="27" viewBox="0 0 27 27" fill="none" xmlns="http://www.w3.org/2000/svg">
<mask id="mask0_1449_918" style="mask-type:luminance" maskUnits="userSpaceOnUse" x="2" y="1" width="23" height="25">
<path d="M2.8125 3.9375C2.8125 3.48995 2.99029 3.06072 3.30676 2.74426C3.62322 2.42779 4.05245 2.25 4.5 2.25H18C18.4476 2.25 18.8768 2.42779 19.1932 2.74426C19.5097 3.06072 19.6875 3.48995 19.6875 3.9375V24.75H4.5C4.05245 24.75 3.62322 24.5722 3.30676 24.2557C2.99029 23.9393 2.8125 23.51 2.8125 23.0625V3.9375Z" fill="white" stroke="white" stroke-linejoin="round"/>
<path d="M19.6875 13.5C19.6875 13.2016 19.806 12.9155 20.017 12.7045C20.228 12.4935 20.5141 12.375 20.8125 12.375H23.0625C23.3609 12.375 23.647 12.4935 23.858 12.7045C24.069 12.9155 24.1875 13.2016 24.1875 13.5V23.0625C24.1875 23.5101 24.0097 23.9393 23.6932 24.2557C23.3768 24.5722 22.9476 24.75 22.5 24.75H19.6875V13.5Z" stroke="white" stroke-linejoin="round"/>
<path d="M6.1875 6.75H10.6875M6.1875 10.6875H12.9375" stroke="black" stroke-width="2" stroke-linecap="round" stroke-linejoin="round"/>
</mask>
<g mask="url(#mask0_1449_918)">
<path d="M0 0H27V27H0V0Z" fill="#3A3A3A"/>
</g>
</svg>
